# xmcd
#
# Track frame offsets:
#	150
#	14915
#	33215
#	50067
#	66160
#	89405
#	107890
#	124842
#	144755
#	159740
#
# Disc length: 2377 seconds
#
# Revision: 2
# Processed by: cddbd v1.5.2PL0 Copyright (c) Steve Scherf et al.
# Submitted via: audiograbber 1.83.01
#
DISCID=8c09470a
DTITLE=Dionne Warwick - Dionne
DYEAR=1979
DGENRE=R&B
TTITLE0=Who, What, When, Where, Why
TTITLE1=After You
TTITLE2=The Letter
TTITLE3=I'll Never Love This Way Again
TTITLE4=Deja Vu
TTITLE5=Feeling Old Feelings
TTITLE6=In Your Eyes
TTITLE7=My Everlasting Love
TTITLE8=Out Of My Hands
TTITLE9=All The Time
EXTD=
EXTT0=
EXTT1=
EXTT2=
EXTT3=
EXTT4=
EXTT5=
EXTT6=
EXTT7=
EXTT8=
EXTT9=
PLAYORDER=
